<svg xmlns="http://www.w3.org/2000/svg" width="119" height="36" viewBox="0 0 119 36">
    <path fill="#00F39E" fill-rule="evenodd" d="M19.655 16.555c.005-5.099 3.995-9.277 9.058-9.664V6.89l.041-.002a10.563 10.563 0 0 1 .71-.027h.019a9.91 9.91 0 0 1 3.578.664v.002a9.855 9.855 0 0 1 3.012 1.845 3.813 3.813 0 0 1-.643 1.224A9.857 9.857 0 0 1 43.18 6.86c5.425 0 9.827 4.344 9.827 9.703 0 5.359-4.4 9.703-9.827 9.703-5.428 0-9.828-4.344-9.828-9.703 0-2.242.77-4.306 2.064-5.949a3.927 3.927 0 0 1-4.3 1.272 5.198 5.198 0 0 0-1.632-.255c-2.932 0-4.914 2.257-4.914 4.932v9.218h-4.914v-9.205c-.007 5.353-4.43 9.69-9.715 9.69-1.366 0-3.209-.277-5.026-1.622v6.474c0 2.68-2.2 4.851-4.914 4.851V16.564c0-5.359 4.4-9.703 9.828-9.703 5.424 0 9.822 4.34 9.827 9.694zM115.87 3.39a.814.814 0 0 0 .82-.808.814.814 0 0 0-.82-.809.814.814 0 0 0-.818.809c0 .446.366.808.818.808zm.614 4.236v-2.79c0-.67-.435-1.212-1.227-1.212v4.002h1.227zM114.7 6.452v-.905c-.022-1.195-1.01-2.158-2.226-2.158-1.23 0-2.226.984-2.226 2.198s.963 2.198 2.116 2.198c.582 0 1.07-.295 1.326-.6.204.29.547.48 1.01.48V6.452zM114.007 0c2.714 0 4.914 2.172 4.914 4.852 0 2.679-2.2 4.851-4.914 4.851h-4.914V4.852c0-2.68 2.2-4.852 4.914-4.852zm-1.534 4.509c.615 0 1.01.525 1.01 1.078s-.395 1.08-1.01 1.08-1.01-.527-1.01-1.08.395-1.078 1.01-1.078zm-10.329 16.987c2.928 0 4.914-2.257 4.914-4.932 0-2.675-1.982-4.932-4.914-4.932-2.931 0-4.913 2.257-4.913 4.932 0 2.675 1.986 4.932 4.913 4.932zm0-14.635c5.426 0 9.828 4.344 9.828 9.703 0 5.359-4.4 9.703-9.828 9.703-5.427 0-9.827-4.344-9.827-9.703 0-5.359 4.402-9.703 9.827-9.703zm-9.827 5.092v4.611c0 5.35-4.409 9.703-9.828 9.703s-9.827-4.353-9.827-9.703V7.103c2.713 0 4.912 2.172 4.913 4.85v4.611c0 2.675 2.205 4.77 4.914 4.77 2.71 0 4.914-2.095 4.914-4.77V7.103c2.713 0 4.913 2.172 4.914 4.85zm-29.483 9.543c2.928 0 4.914-2.257 4.914-4.932 0-2.675-1.986-4.932-4.914-4.932s-4.914 2.257-4.914 4.932c0 2.675 1.986 4.932 4.914 4.932zm0-14.635c5.428 0 9.828 4.344 9.828 9.703V35.97c-2.714 0-4.914-2.172-4.914-4.851v-6.474c-1.818 1.345-3.66 1.622-5.027 1.622-5.289 0-9.715-4.344-9.715-9.703 0-5.359 4.4-9.703 9.828-9.703zM43.179 21.496c2.928 0 4.913-2.257 4.913-4.932 0-2.675-1.982-4.932-4.913-4.932-2.932 0-4.914 2.257-4.914 4.932 0 2.675 1.986 4.932 4.914 4.932zm-33.351 0c2.928 0 4.913-2.257 4.913-4.932 0-2.675-1.985-4.932-4.913-4.932s-4.914 2.257-4.914 4.932c0 2.675 1.986 4.932 4.914 4.932z"/>
</svg>
